<svg width="120" height="80" viewBox="0 0 120 80" fill="none" xmlns="http://www.w3.org/2000/svg">
<path d="M28.8687 78.7522H1V50.9949H14.8222H28.8687V78.7522Z" stroke="#991B1E" stroke-width="2" stroke-linecap="round" stroke-linejoin="round"/>
<path d="M14.8222 62.0842V50.9949" stroke="#991B1E" stroke-width="2" stroke-linecap="round" stroke-linejoin="round"/>
<path d="M43.3613 50.9219H15.4926V23.1646H29.3148H43.3613V50.9219Z" stroke="#991B1E" stroke-width="2" stroke-linecap="round" stroke-linejoin="round"/>
<path d="M29.3148 34.2539V23.1646" stroke="#991B1E" stroke-width="2" stroke-linecap="round" stroke-linejoin="round"/>
<path d="M57.1246 78.7522H29.2558V50.9949H43.0781H57.1246V78.7522Z" stroke="#991B1E" stroke-width="2" stroke-linecap="round" stroke-linejoin="round"/>
<path d="M43.0781 62.0842V50.9949" stroke="#991B1E" stroke-width="2" stroke-linecap="round" stroke-linejoin="round"/>
<path d="M7.12277 13.3447V6.63986C7.12277 3.52489 9.65779 1 12.7853 1H72.068C75.1954 1 77.7305 3.52489 77.7305 6.63986V61.0496" stroke="#991B1E" stroke-width="2" stroke-linecap="round" stroke-linejoin="round"/>
<path d="M66.1199 57.0671H77.7305" stroke="#991B1E" stroke-width="2" stroke-linecap="round" stroke-linejoin="round"/>
<path d="M66.0136 68.1257H78.2851" stroke="#991B1E" stroke-width="2" stroke-linecap="round" stroke-linejoin="round"/>
<path d="M78.0632 11.6167H91.8005C94.3733 11.6167 96.7643 12.9403 98.1239 15.1172L105.139 26.3523C106.536 28.5904 108.432 30.4758 110.681 31.8628L118.366 36.6094V65.1401H112.371" stroke="#991B1E" stroke-width="2" stroke-linecap="round" stroke-linejoin="round"/>
<path d="M85.2812 19.5794V32.9608H100.048L93.0515 19.3584C93.0515 19.3584 85.1679 19.5794 85.2789 19.5794H85.2812Z" stroke="#991B1E" stroke-width="2" stroke-linecap="round" stroke-linejoin="round"/>
<path d="M117.812 40.5894H113.981C112.234 40.5894 110.816 41.9999 110.816 43.7419V49.1608C110.816 50.9005 112.232 52.3134 113.981 52.3134H118.366" stroke="#991B1E" stroke-width="2" stroke-linecap="round" stroke-linejoin="round"/>
<path d="M85.8123 41.6943H92.8297" stroke="#991B1E" stroke-width="2" stroke-linecap="round" stroke-linejoin="round"/>
<path d="M95.2348 71.1914C97.3506 71.1914 99.0657 69.4831 99.0657 67.3758C99.0657 65.2686 97.3506 63.5603 95.2348 63.5603C93.1191 63.5603 91.404 65.2686 91.404 67.3758C91.404 69.4831 93.1191 71.1914 95.2348 71.1914Z" stroke="#991B1E" stroke-width="2" stroke-linecap="round" stroke-linejoin="round"/>
<path d="M95.2254 77.9481C101.146 77.9481 105.946 73.1674 105.946 67.2702C105.946 61.3729 101.146 56.5923 95.2254 56.5923C89.3045 56.5923 84.5047 61.3729 84.5047 67.2702C84.5047 73.1674 89.3045 77.9481 95.2254 77.9481Z" stroke="#991B1E" stroke-width="2" stroke-linecap="round" stroke-linejoin="round"/>
</svg>
